<mxfile host="Electron" modified="2023-05-21T00:23:44.179Z" agent="Mozilla/5.0 (Windows NT 10.0; Win64; x64) AppleWebKit/537.36 (KHTML, like Gecko) draw.io/21.2.8 Chrome/112.0.5615.165 Electron/24.2.0 Safari/537.36" etag="LjlE2MNvMHr9XvFiJt42" version="21.2.8" type="device">
  <diagram name="Page-1" id="_UZl_EfV4ix5ZhXa6Rl7">
    <mxGraphModel dx="1098" dy="834" grid="1" gridSize="10" guides="1" tooltips="1" connect="1" arrows="1" fold="1" page="1" pageScale="1" pageWidth="850" pageHeight="1100" math="0" shadow="0">
      <root>
        <mxCell id="0" />
        <mxCell id="1" parent="0" />
        <mxCell id="kUtB4awKa2FdyR1kNwDj-9" value="" style="rounded=1;arcSize=10;dashed=1;strokeColor=#F59D56;fillColor=none;gradientColor=none;dashPattern=8 4;strokeWidth=2;" vertex="1" parent="1">
          <mxGeometry x="100" y="240" width="690" height="410" as="geometry" />
        </mxCell>
        <mxCell id="kUtB4awKa2FdyR1kNwDj-2" value="EC2" style="sketch=0;points=[[0,0,0],[0.25,0,0],[0.5,0,0],[0.75,0,0],[1,0,0],[0,1,0],[0.25,1,0],[0.5,1,0],[0.75,1,0],[1,1,0],[0,0.25,0],[0,0.5,0],[0,0.75,0],[1,0.25,0],[1,0.5,0],[1,0.75,0]];outlineConnect=0;fontColor=#232F3E;gradientColor=#F78E04;gradientDirection=north;fillColor=#D05C17;strokeColor=#ffffff;dashed=0;verticalLabelPosition=bottom;verticalAlign=top;align=center;html=1;fontSize=12;fontStyle=0;aspect=fixed;shape=mxgraph.aws4.resourceIcon;resIcon=mxgraph.aws4.ec2;" vertex="1" parent="1">
          <mxGeometry x="190" y="300" width="78" height="78" as="geometry" />
        </mxCell>
        <mxCell id="kUtB4awKa2FdyR1kNwDj-6" style="edgeStyle=orthogonalEdgeStyle;rounded=0;orthogonalLoop=1;jettySize=auto;html=1;" edge="1" parent="1" source="kUtB4awKa2FdyR1kNwDj-3" target="kUtB4awKa2FdyR1kNwDj-4">
          <mxGeometry relative="1" as="geometry" />
        </mxCell>
        <mxCell id="kUtB4awKa2FdyR1kNwDj-3" value="" style="outlineConnect=0;dashed=0;verticalLabelPosition=bottom;verticalAlign=top;align=center;html=1;shape=mxgraph.aws3.router;fillColor=#F58534;gradientColor=none;" vertex="1" parent="1">
          <mxGeometry x="390" y="303" width="69" height="72" as="geometry" />
        </mxCell>
        <mxCell id="kUtB4awKa2FdyR1kNwDj-8" style="edgeStyle=orthogonalEdgeStyle;rounded=0;orthogonalLoop=1;jettySize=auto;html=1;" edge="1" parent="1" source="kUtB4awKa2FdyR1kNwDj-4" target="kUtB4awKa2FdyR1kNwDj-7">
          <mxGeometry relative="1" as="geometry" />
        </mxCell>
        <mxCell id="kUtB4awKa2FdyR1kNwDj-4" value="VPC Endpoint" style="sketch=0;points=[[0,0,0],[0.25,0,0],[0.5,0,0],[0.75,0,0],[1,0,0],[0,1,0],[0.25,1,0],[0.5,1,0],[0.75,1,0],[1,1,0],[0,0.25,0],[0,0.5,0],[0,0.75,0],[1,0.25,0],[1,0.5,0],[1,0.75,0]];outlineConnect=0;fontColor=#232F3E;gradientColor=#945DF2;gradientDirection=north;fillColor=#5A30B5;strokeColor=#ffffff;dashed=0;verticalLabelPosition=bottom;verticalAlign=top;align=center;html=1;fontSize=12;fontStyle=0;aspect=fixed;shape=mxgraph.aws4.resourceIcon;resIcon=mxgraph.aws4.vpc;" vertex="1" parent="1">
          <mxGeometry x="610" y="300" width="78" height="78" as="geometry" />
        </mxCell>
        <mxCell id="kUtB4awKa2FdyR1kNwDj-7" value="S3" style="sketch=0;points=[[0,0,0],[0.25,0,0],[0.5,0,0],[0.75,0,0],[1,0,0],[0,1,0],[0.25,1,0],[0.5,1,0],[0.75,1,0],[1,1,0],[0,0.25,0],[0,0.5,0],[0,0.75,0],[1,0.25,0],[1,0.5,0],[1,0.75,0]];outlineConnect=0;fontColor=#232F3E;gradientColor=#60A337;gradientDirection=north;fillColor=#277116;strokeColor=#ffffff;dashed=0;verticalLabelPosition=bottom;verticalAlign=top;align=center;html=1;fontSize=12;fontStyle=0;aspect=fixed;shape=mxgraph.aws4.resourceIcon;resIcon=mxgraph.aws4.s3;" vertex="1" parent="1">
          <mxGeometry x="610" y="520" width="78" height="78" as="geometry" />
        </mxCell>
        <mxCell id="kUtB4awKa2FdyR1kNwDj-10" value="Internet Gateway" style="outlineConnect=0;dashed=0;verticalLabelPosition=middle;verticalAlign=middle;align=left;html=1;shape=mxgraph.aws3.internet_gateway;fillColor=#F58534;gradientColor=none;labelPosition=right;spacingLeft=10;" vertex="1" parent="1">
          <mxGeometry x="760" y="409" width="69" height="72" as="geometry" />
        </mxCell>
        <mxCell id="kUtB4awKa2FdyR1kNwDj-11" value="" style="outlineConnect=0;dashed=0;verticalLabelPosition=bottom;verticalAlign=top;align=center;html=1;shape=mxgraph.aws3.cloud_2;fillColor=#F58534;gradientColor=none;" vertex="1" parent="1">
          <mxGeometry x="432.5" y="190" width="75" height="75" as="geometry" />
        </mxCell>
        <mxCell id="kUtB4awKa2FdyR1kNwDj-13" style="edgeStyle=orthogonalEdgeStyle;rounded=0;orthogonalLoop=1;jettySize=auto;html=1;exitX=1;exitY=0.5;exitDx=0;exitDy=0;" edge="1" parent="1" source="kUtB4awKa2FdyR1kNwDj-12" target="kUtB4awKa2FdyR1kNwDj-3">
          <mxGeometry relative="1" as="geometry" />
        </mxCell>
        <mxCell id="kUtB4awKa2FdyR1kNwDj-12" value="VPC" style="points=[[0,0],[0.25,0],[0.5,0],[0.75,0],[1,0],[1,0.25],[1,0.5],[1,0.75],[1,1],[0.75,1],[0.5,1],[0.25,1],[0,1],[0,0.75],[0,0.5],[0,0.25]];outlineConnect=0;gradientColor=none;html=1;whiteSpace=wrap;fontSize=12;fontStyle=0;container=1;pointerEvents=0;collapsible=0;recursiveResize=0;shape=mxgraph.aws4.group;grIcon=mxgraph.aws4.group_vpc;strokeColor=#248814;fillColor=none;verticalAlign=top;align=left;spacingLeft=30;fontColor=#AAB7B8;dashed=0;" vertex="1" parent="1">
          <mxGeometry x="152" y="267" width="154" height="144" as="geometry" />
        </mxCell>
      </root>
    </mxGraphModel>
  </diagram>
</mxfile>
